name C:\Users\u0101727\Documents\MyRepositories\upper-imu-dc\Results\main_tracking\Case_50\kinematics.mot
datacolumns 10
datarows 28
range 4.88000000 5.15000000
endheader 
time	clav_prot	clav_elev	scapula_abduction	scapula_elevation	scapula_upward_rot	scapula_winging	plane_elv	shoulder_elv	axial_rot	
          4.88000000	        -48.11577404	          9.85916066	        -26.06906258	         -2.61081830	         57.08786113	        -16.35739078	         18.95901487	         76.93303960	        -14.77846003	
          4.89000000	        -48.07643998	          9.83898245	        -26.39914297	         -2.60513478	         56.57185944	        -16.29867298	         18.99703380	         76.60187258	        -15.12216602	
          4.90000000	        -48.03424104	          9.81763644	        -26.71793293	         -2.59885561	         56.06479761	        -16.23586492	         19.01714990	         76.24915195	        -15.43266413	
          4.91000000	        -47.98917041	          9.79524866	        -27.02471679	         -2.59200727	         55.56766365	        -16.16917802	         19.01835442	         75.87372351	        -15.70526835	
          4.92000000	        -47.94118446	          9.77187629	        -27.31879196	         -2.58466413	         55.08132691	        -16.09878385	         18.99965928	         75.47474268	        -15.93719471	
          4.93000000	        -47.89021654	          9.74750022	        -27.59950517	         -2.57695102	         54.60651242	        -16.02481714	         18.96013140	         75.05170033	        -16.12766549	
          4.94000000	        -47.83619736	          9.72202520	        -27.86630086	         -2.56904115	         54.14377514	        -15.94738535	         18.89894833	         74.60443697	        -16.27787737	
          4.95000000	        -47.77908016	          9.69528764	        -28.11877739	         -2.56114896	         53.69347596	        -15.86658351	         18.81546959	         74.13314526	        -16.39085358	
          4.96000000	        -47.71886745	          9.66707061	        -28.35674456	         -2.55351838	         53.25576254	        -15.78251236	         18.70931360	         73.63836099	        -16.47121729	
          4.97000000	        -47.65563602	          9.63712504	        -28.58027465	         -2.54640723	         52.83055825	        -15.69529723	         18.58042937	         73.12094369	        -16.52492672	
          4.98000000	        -47.58955681	          9.60519433	        -28.78974022	         -2.54006965	         52.41756086	        -15.60510499	         18.42915503	         72.58204940	        -16.55899961	
          4.99000000	        -47.52090744	          9.57103804	        -28.98583532	         -2.53473917	         52.01624925	        -15.51215612	         18.25626009	         72.02309886	        -16.58123241	
          5.00000000	        -47.45007625	          9.53444957	        -29.16957981	         -2.53061578	         51.62589391	        -15.41672953	         18.06297202	         71.44574391	        -16.59990199	
          5.01000000	        -47.37755803	          9.49526485	        -29.34230824	         -2.52785875	         51.24556827	        -15.31915927	         17.85098718	         70.85183342	        -16.62343735	
          5.02000000	        -47.30394297	          9.45336177	        -29.50564543	         -2.52658532	         50.87416036	        -15.21982414	         17.62246529	         70.24337818	        -16.66005995	
          5.03000000	        -47.22990058	          9.40865412	        -29.66147053	         -2.52687321	         50.51038773	        -15.11913294	         17.38000535	         69.62251291	        -16.71740757	
          5.04000000	        -47.15616041	          9.36108555	        -29.81187057	         -2.52876360	         50.15281990	        -15.01750887	         17.12660079	         68.99145285	        -16.80217039	
          5.05000000	        -47.08349038	          9.31062867	        -29.95908392	         -2.53226150	         49.79991219	        -14.91537567	         16.86557293	         68.35244357	        -16.91977633	
          5.06000000	        -47.01267271	          9.25729184	        -30.10543334	         -2.53733208	         49.45005202	        -14.81314660	         16.60048347	         67.70770545	        -17.07416161	
          5.07000000	        -46.94447675	          9.20113253	        -30.25324894	         -2.54389356	         49.10161592	        -14.71121548	         16.33502886	         67.05937715	        -17.26765527	
          5.08000000	        -46.87962939	          9.14227399	        -30.40478308	         -2.55180872	         48.75303391	        -14.60994902	         16.07291937	         66.40946305	        -17.50099565	
          5.09000000	        -46.81878412	          9.08092047	        -30.56212154	         -2.56087800	         48.40285559	        -14.50967952	         15.81774717	         65.75979033	        -17.77348223	
          5.10000000	        -46.76249089	          9.01736550	        -30.72709735	         -2.57083752	         48.04981072	        -14.41069658	         15.57284993	         65.11198087	        -18.08324784	
          5.11000000	        -46.71116838	          8.95198873	        -30.90121377	         -2.58136436	         47.69285680	        -14.31323680	         15.34117762	         64.46744147	        -18.42762056	
          5.12000000	        -46.66508023	          8.88524006	        -31.08558139	         -2.59208992	         47.33120966	        -14.21747124	         15.12516929	         63.82737263	        -18.80353172	
          5.13000000	        -46.62431657	          8.81761265	        -31.28087158	         -2.60262002	         46.96435749	        -14.12349153	         14.92664676	         63.19279309	        -19.20791157	
          5.14000000	        -46.58878157	          8.74960854	        -31.48728665	         -2.61255954	         46.59206110	        -14.03129623	         14.74673326	         62.56457427	        -19.63799829	
          5.15000000	        -46.55818791	          8.68170186	        -31.70454682	         -2.62153853	         46.21434459	        -13.94077950	         14.58580540	         61.94347674	        -20.09149225	
